<svg width="87" height="45" viewBox="0 0 87 45" fill="none" xmlns="http://www.w3.org/2000/svg">
<path d="M0 28.3694C0 25.0587 0.613343 22.1522 1.84003 19.65C3.10505 17.1477 4.81091 15.2228 6.95761 13.8755C9.10431 12.5281 11.5002 11.8544 14.1452 11.8544C16.4069 11.8544 18.3811 12.3163 20.0678 13.2403C21.7928 14.1642 23.1154 15.3768 24.0354 16.8782V12.3163H33.868V44.538H24.0354V39.9762C23.077 41.4776 21.7353 42.6902 20.0103 43.6141C18.3236 44.538 16.3494 45 14.0877 45C11.481 45 9.10431 44.3263 6.95761 42.9789C4.81091 41.593 3.10505 39.649 1.84003 37.1467C0.613343 34.6059 0 31.6802 0 28.3694ZM24.0354 28.4272C24.0354 25.9634 23.3454 24.0193 21.9653 22.595C20.6237 21.1706 18.9753 20.4584 17.0203 20.4584C15.0652 20.4584 13.3977 21.1706 12.0177 22.595C10.676 23.9808 10.0052 25.9057 10.0052 28.3694C10.0052 30.8332 10.676 32.7966 12.0177 34.2594C13.3977 35.6838 15.0652 36.396 17.0203 36.396C18.9753 36.396 20.6237 35.6838 21.9653 34.2594C23.3454 32.8351 24.0354 30.891 24.0354 28.4272Z" fill="#3D1565"/>
<path d="M48.2266 1.80676V44.538H38.394V1.80676H48.2266Z" fill="#3D1565"/>
<path d="M67.3699 45C64.2266 45 61.3898 44.3263 58.8598 42.9789C56.3681 41.6315 54.3939 39.7067 52.9372 37.2044C51.5189 34.7021 50.8097 31.7764 50.8097 28.4272C50.8097 25.1165 51.538 22.21 52.9947 19.7077C54.4514 17.1669 56.4448 15.2228 58.9748 13.8755C61.5048 12.5281 64.3416 11.8544 67.4849 11.8544C70.6283 11.8544 73.465 12.5281 75.9951 13.8755C78.5251 15.2228 80.5185 17.1669 81.9752 19.7077C83.4319 22.21 84.1602 25.1165 84.1602 28.4272C84.1602 31.7379 83.4127 34.6637 81.9177 37.2044C80.461 39.7067 78.4484 41.6315 75.8801 42.9789C73.35 44.3263 70.5133 45 67.3699 45ZM67.3699 36.4537C69.2483 36.4537 70.8392 35.7608 72.1425 34.3749C73.4842 32.989 74.155 31.0065 74.155 28.4272C74.155 25.8479 73.5034 23.8653 72.2 22.4795C70.935 21.0936 69.3633 20.4006 67.4849 20.4006C65.5682 20.4006 63.9774 21.0936 62.7124 22.4795C61.4473 23.8268 60.8148 25.8094 60.8148 28.4272C60.8148 31.0065 61.4282 32.989 62.6549 34.3749C63.9199 35.7608 65.4916 36.4537 67.3699 36.4537Z" fill="#3D1565"/>
<path d="M55.5739 13.2277C56.9696 11.9144 58.5186 10.8778 60.1562 10.1159C60.6621 9.87153 61.0139 9.37207 61.0335 8.76393L61.1882 3.98568C65.869 2.62738 70.8576 2.7902 75.4407 4.45084L75.2861 9.22909C75.2664 9.83723 75.5851 10.3586 76.0741 10.6354C77.7028 11.5285 79.1787 12.6777 80.4456 14.0395C80.723 14.3368 81.1068 14.5113 81.5124 14.5246C81.918 14.5378 82.3122 14.3887 82.6083 14.11L86.5161 10.4327C86.8122 10.154 86.986 9.76865 86.9992 9.36133C87.0124 8.95402 86.8639 8.55813 86.5864 8.26075C81.8693 3.20535 75.3456 0.238836 68.4505 0.0137997C61.5554 -0.211237 54.8537 2.32364 49.8196 7.06079C49.5235 7.33945 49.3498 7.72482 49.3366 8.13214C49.3234 8.53945 49.4719 8.93534 49.7493 9.23272L53.4112 13.1571C53.6886 13.4545 54.0724 13.629 54.478 13.6422C54.8836 13.6555 55.2778 13.5064 55.5739 13.2277Z" fill="#3D1565"/>
</svg>
